PathFileType  4	(X/Y/Z) C:\Users\antoi\Documents\MyRepositories\mobilecap\ResultsAnalysis
DataRate	CameraRate	NumFrames	NumMarkers	Units	OrigDataRate	OrigDataStartFrame	OrigNumFrames
100.0	100.0	6	51	mm	100.0	50	197
Frame#	Time	r_knee			r_shank_antsup			r_ankle			r_calc			r_5meta			r_toe			L_knee			L_shank_antsup			L_ankle			L_calc			L_5meta			L_toe			r_sh2			r_sh3			r_sh4			L_sh2			L_sh3			r_thigh1			r_thigh2			r_thigh3			r_thigh4			r_thigh5			L_thigh1			L_thigh2			L_thigh3			L_thigh4			r.ASIS			r.PSIS			L.ASIS			L.PSIS			C7			R_Shoulder			L_Shoulder			R_Sternum			L_Sternum			R_humerus			R_elbow_med			R_elbow_lat			R_forearm			R_wrist_radius			R_wrist_ulna			L_humerus			L_elbow_med			L_elbow_lat			L_forearm			L_wrist_radius			L_wrist_ulna			R_HJC			L_HJC			R_HJC_reg			L_HJC_reg			
		X1	Y1	Z1	X2	Y2	Z2	X3	Y3	Z3	X4	Y4	Z4	X5	Y5	Z5	X6	Y6	Z6	X7	Y7	Z7	X8	Y8	Z8	X9	Y9	Z9	X10	Y10	Z10	X11	Y11	Z11	X12	Y12	Z12	X13	Y13	Z13	X14	Y14	Z14	X15	Y15	Z15	X16	Y16	Z16	X17	Y17	Z17	X18	Y18	Z18	X19	Y19	Z19	X20	Y20	Z20	X21	Y21	Z21	X22	Y22	Z22	X23	Y23	Z23	X24	Y24	Z24	X25	Y25	Z25	X26	Y26	Z26	X27	Y27	Z27	X28	Y28	Z28	X29	Y29	Z29	X30	Y30	Z30	X31	Y31	Z31	X32	Y32	Z32	X33	Y33	Z33	X34	Y34	Z34	X35	Y35	Z35	X36	Y36	Z36	X37	Y37	Z37	X38	Y38	Z38	X39	Y39	Z39	X40	Y40	Z40	X41	Y41	Z41	X42	Y42	Z42	X43	Y43	Z43	X44	Y44	Z44	X45	Y45	Z45	X46	Y46	Z46	X47	Y47	Z47	X48	Y48	Z48	X49	Y49	Z49	X50	Y50	Z50	X51	Y51	Z51	

50	0.49000000	-871.65259	859.09972	-439.81218	-855.08014	781.62145	-456.46194	-1042.06861	489.03660	-470.59603	-1101.57451	526.77697	-507.54709	-1022.99924	363.48807	-463.13870	-969.52150	349.08476	-517.81938	-626.43774	938.84721	-743.39603	-620.29806	842.49009	-751.05593	-809.59025	596.88375	-714.55878	-876.11217	608.81025	-657.61394	-774.21597	479.22195	-757.43767	-717.03464	474.78266	-713.48516	-916.50089	684.39382	-436.93502	-923.06821	819.05842	-430.55529	-979.94767	722.01446	-430.67398	-696.80970	890.14917	-748.91082	-750.93010	780.18550	-749.63412	-761.05088	1162.38510	-399.27614	-780.50990	1053.06932	-410.79094	-839.82280	1036.24284	-386.05155	-872.18635	1178.10571	-379.66503	-888.27913	1062.96358	-396.73370	-731.94047	1188.36529	-775.99400	-651.86102	1075.41087	-761.64841	-822.18573	1125.52361	-732.90551	-736.51730	1013.54649	-732.00964	-725.96898	1338.09677	-439.01148	-910.53030	1401.12117	-497.57777	-740.53494	1354.81329	-683.60002	-926.61249	1412.63937	-596.04541	-814.29410	1819.72690	-566.76735	-717.12895	1791.06758	-412.66905	-748.34773	1783.23709	-737.74727	-680.07071	1743.66523	-560.33791	-680.12244	1744.90102	-590.77537	-710.21899	1692.19174	-311.73041	-720.86958	1462.66086	-295.35018	-712.76677	1504.68844	-226.45265	-586.47199	1556.87072	-261.87754	-475.17275	1595.07998	-306.68053	-454.35496	1574.14532	-286.38146	-763.65366	1692.01289	-819.95812	-869.18032	1473.46312	-822.20043	-842.03564	1508.39815	-891.89585	-737.90217	1478.44850	-858.77082	-609.54918	1413.28721	-816.31075	-612.86907	1393.21442	-845.27121	-809.64082	1268.02473	-461.43961	-823.67547	1286.66553	-666.58708	-798.22324	1272.37302	-469.25253	-824.19249	1290.96428	-628.15450	
51	0.50000000	-853.02616	865.78174	-438.03760	-836.60478	787.74164	-454.36324	-1026.47098	497.02276	-468.20717	-1084.24957	534.76639	-506.44488	-1009.57035	370.41402	-460.31451	-953.08957	356.02544	-512.20706	-618.50147	945.83390	-744.19947	-609.87200	849.77844	-752.19077	-790.44571	597.10931	-716.51903	-856.53806	607.91937	-658.94972	-753.54542	479.74241	-759.79871	-695.92935	476.24904	-716.28706	-898.47010	690.83626	-434.47934	-904.28288	825.64655	-428.89067	-961.83899	729.05295	-428.24201	-687.82893	894.48832	-748.70477	-738.25335	782.99887	-750.56632	-747.66684	1171.41661	-399.15612	-765.08802	1061.73325	-409.63399	-824.04675	1043.82651	-384.56456	-858.99273	1185.18090	-378.99306	-872.92560	1069.87760	-395.71430	-722.71497	1196.01106	-776.70047	-643.54565	1082.35115	-762.22983	-813.21580	1133.89470	-732.48906	-728.45648	1021.23565	-731.95797	-715.91501	1349.52137	-439.69244	-899.51686	1409.98354	-499.13143	-729.96033	1365.74310	-683.73702	-916.44904	1421.31033	-596.43385	-803.48813	1828.43664	-567.93357	-708.44174	1799.34630	-413.56471	-737.66180	1790.50532	-738.70483	-669.48982	1750.40042	-560.03969	-669.88649	1752.68713	-591.49610	-704.34918	1700.23575	-312.08157	-719.04969	1470.77921	-295.79622	-711.42858	1512.71073	-226.85662	-584.40133	1564.06116	-260.21927	-472.42250	1601.85372	-303.41629	-451.92798	1580.27792	-283.49114	-753.13551	1699.33083	-820.45364	-862.48104	1482.52660	-821.36946	-834.69937	1516.29742	-891.19182	-731.16188	1484.54652	-857.94324	-603.93518	1417.59550	-815.32796	-607.39885	1397.62920	-844.34240	-798.10701	1278.28899	-461.98519	-811.99916	1296.55912	-667.17432	-785.99551	1282.84271	-469.38568	-813.52624	1301.26418	-627.65767	
52	0.51000000	-833.00576	871.19778	-436.36675	-817.38898	793.29906	-452.13742	-1008.65780	504.58386	-466.28802	-1067.51598	540.47064	-504.45408	-988.86363	378.56604	-456.46556	-932.31248	364.59022	-508.57902	-610.92549	951.84884	-745.04892	-599.91554	856.14323	-753.21201	-771.39506	596.66466	-718.64258	-837.01781	606.33587	-660.97680	-732.46862	479.66515	-762.11287	-674.55948	477.51455	-719.03039	-879.88124	696.71152	-432.69703	-884.39495	831.79916	-426.38061	-943.19879	735.52599	-425.81666	-679.11379	897.86118	-748.12685	-725.76492	785.18316	-751.53711	-734.99727	1179.92399	-398.85839	-749.61779	1069.68049	-408.32974	-808.11059	1050.57593	-382.79511	-846.52494	1191.25077	-378.57972	-857.61599	1075.44153	-394.04622	-714.29412	1202.52588	-777.58716	-635.79788	1088.19003	-762.89680	-804.83247	1141.12505	-731.92434	-720.92474	1027.81487	-732.03106	-706.33446	1359.41125	-440.27508	-889.66046	1418.13138	-500.48423	-718.66254	1376.03086	-683.64954	-906.53175	1429.08528	-597.52082	-792.38974	1836.08345	-568.83961	-699.13385	1806.17512	-414.24905	-726.45007	1796.70880	-739.77244	-657.82185	1755.36457	-557.04661	-659.47181	1759.47507	-592.06992	-698.06079	1706.50301	-312.42108	-717.83600	1477.40936	-296.29209	-710.68031	1519.35235	-227.35324	-582.81230	1569.39933	-258.14551	-469.78008	1606.34388	-299.43697	-449.74812	1584.19123	-279.77818	-741.82921	1705.09819	-820.86735	-855.29462	1490.42865	-820.29310	-827.22170	1523.19856	-890.38307	-724.30081	1489.90377	-856.79214	-598.14640	1421.20193	-814.54465	-601.78544	1401.31792	-843.45110	-787.32613	1287.31832	-462.83158	-800.12769	1305.86559	-668.06620	-774.99623	1292.85920	-469.77175	-802.43541	1310.67822	-627.63418	
53	0.52000000	-812.47594	876.05552	-434.72909	-797.63280	798.95378	-450.35336	-987.91881	510.32911	-463.96560	-1048.91482	544.24123	-501.22160	-963.97202	385.37366	-452.27855	-909.01004	372.12285	-506.01572	-603.76292	956.73910	-745.78366	-590.38089	861.51996	-754.41858	-752.46276	595.51098	-720.97257	-817.63390	604.07786	-663.52169	-711.01067	479.13559	-764.41616	-653.00072	478.38356	-721.48500	-860.22768	702.28628	-431.32626	-864.20481	837.51266	-423.62644	-923.49798	741.44594	-423.43277	-670.75217	900.58658	-748.24859	-713.66698	786.39264	-752.36689	-723.05152	1187.82160	-398.38573	-734.39342	1076.89857	-406.91843	-792.34805	1056.70276	-381.00521	-834.74460	1196.26382	-378.41172	-842.56056	1079.83761	-392.27958	-706.48286	1207.79425	-778.32855	-628.52316	1092.94067	-763.56063	-796.89110	1147.23498	-731.24475	-713.84943	1033.11173	-732.16638	-697.09084	1367.86766	-440.71400	-880.95767	1425.35779	-501.47842	-707.98064	1384.33977	-683.77302	-896.78979	1435.93503	-599.02733	-781.05011	1842.68608	-569.74363	-689.19484	1811.72384	-414.52746	-714.85572	1801.97857	-741.04173	-646.59111	1760.01884	-555.75664	-648.89916	1765.38905	-592.68843	-691.37776	1711.08671	-312.90018	-716.93889	1482.83700	-296.83069	-710.43265	1524.84355	-227.97937	-581.65657	1572.99563	-255.83650	-467.24752	1608.70319	-294.94824	-447.82102	1586.12919	-275.29389	-729.83269	1709.40871	-821.24683	-848.30511	1497.36398	-819.22211	-819.52210	1529.49407	-890.08904	-717.33991	1494.61618	-855.60959	-592.12315	1424.21083	-813.99336	-596.03738	1404.30823	-842.74831	-777.48475	1295.18582	-463.46195	-789.15890	1313.58945	-668.77992	-765.66756	1301.26508	-470.68286	-791.31594	1318.39401	-628.63337	
54	0.53000000	-792.51171	880.77052	-432.86696	-777.22364	804.57900	-449.26471	-965.14518	513.75306	-460.88762	-1027.62022	546.39457	-497.25332	-938.16161	389.76439	-448.23195	-884.26273	377.48081	-502.92082	-597.05846	960.42601	-746.35666	-581.29988	865.85100	-755.73105	-733.59476	593.64494	-723.45555	-798.71054	600.82210	-666.07155	-689.26557	478.26112	-766.83607	-631.30039	478.84059	-723.78419	-838.87620	707.30983	-429.72891	-843.78593	842.23193	-421.49336	-902.20943	746.15541	-420.89625	-662.68370	902.54824	-749.07068	-702.05521	786.42868	-752.92428	-711.52869	1194.84393	-397.85053	-719.76225	1083.42811	-405.50816	-777.20776	1062.07506	-379.42924	-823.49300	1200.26475	-378.57789	-828.01893	1083.48767	-391.14385	-698.90239	1211.83885	-778.70882	-621.62050	1096.62882	-764.02187	-789.30811	1152.15608	-730.46164	-707.09436	1037.27147	-732.47609	-688.09365	1374.98236	-440.95661	-872.84534	1431.61777	-502.15844	-698.21903	1389.91719	-684.03929	-887.15991	1441.81974	-600.49032	-769.47079	1848.36105	-570.88862	-678.74484	1816.11370	-414.56262	-703.05788	1806.38142	-742.40273	-637.20921	1765.55208	-559.30999	-638.34271	1770.38631	-592.81483	-684.27217	1714.15836	-313.47686	-715.82105	1487.62561	-297.42961	-710.53876	1529.44568	-228.68812	-580.70424	1575.17012	-253.49009	-464.74666	1609.19147	-290.13765	-446.08294	1586.14371	-270.37419	-717.48458	1712.50332	-821.65432	-841.28567	1503.33834	-818.30438	-811.66108	1535.05346	-890.12313	-710.29035	1498.64518	-854.70967	-585.85894	1426.69726	-813.68688	-590.15133	1406.67329	-842.35372	-768.48510	1301.95901	-463.44822	-779.39404	1319.18453	-668.90980	-757.52506	1307.67472	-471.75739	-780.58816	1324.10575	-630.10940	
55	0.54000000	-773.51442	885.15806	-430.73693	-756.32358	809.64652	-448.40867	-940.97980	515.38023	-457.05688	-1004.14391	547.01010	-493.17935	-911.97462	392.06379	-444.26415	-857.75876	381.02229	-498.99876	-590.78381	962.94998	-746.88741	-572.70320	869.06771	-756.87396	-714.95090	591.08834	-725.89762	-780.36404	596.47052	-668.45675	-667.41519	476.93489	-769.42024	-609.66806	478.95182	-726.08313	-816.03847	711.42766	-427.61532	-823.31517	846.24793	-419.84334	-879.84288	749.36060	-418.00274	-654.96234	903.17441	-749.62413	-690.72763	785.50602	-753.62176	-700.36915	1200.92023	-397.27737	-705.94187	1089.24902	-404.12236	-762.97017	1066.49458	-378.01065	-812.66588	1203.56146	-378.96966	-814.13506	1086.64845	-390.57847	-691.30681	1214.90124	-778.79172	-614.89971	1099.30817	-764.46887	-781.96895	1155.90307	-729.86702	-700.54596	1040.57818	-733.19243	-679.27089	1380.76736	-441.08626	-864.35387	1436.83774	-503.15954	-688.39354	1393.64146	-684.24555	-877.52424	1446.69715	-601.79847	-757.62579	1853.18008	-572.18507	-667.99154	1819.37364	-414.64426	-691.17675	1809.88870	-743.68987	-628.60753	1770.93381	-564.66662	-627.64087	1774.37105	-592.63473	-676.76227	1715.98933	-314.05359	-714.53751	1492.06235	-298.06981	-710.83523	1533.36110	-229.49165	-579.82242	1576.27342	-251.15162	-462.18289	1608.06315	-285.08637	-444.43747	1584.34443	-265.26151	-705.25299	1714.58221	-822.10594	-834.16428	1508.50042	-817.49142	-803.81589	1539.48671	-889.56572	-703.09401	1502.01899	-854.12613	-579.45840	1428.67686	-813.57414	-584.10210	1408.55770	-842.15951	-759.76684	1307.55687	-463.22213	-769.81905	1323.23455	-668.85114	-749.15067	1312.57361	-472.48045	-770.32891	1328.42876	-631.11810	
